<mxfile host="app.diagrams.net" agent="Mozilla/5.0 (Windows NT 10.0; Win64; x64) AppleWebKit/537.36 (KHTML, like Gecko) Chrome/134.0.0.0 Safari/537.36 Edg/134.0.0.0" version="26.1.0">
  <diagram name="Page-1" id="TOpNFDJSIR8Wjlxjy9NF">
    <mxGraphModel dx="1109" dy="1260" grid="1" gridSize="10" guides="1" tooltips="1" connect="1" arrows="1" fold="1" page="1" pageScale="1" pageWidth="850" pageHeight="1100" math="0" shadow="0">
      <root>
        <mxCell id="0" />
        <mxCell id="1" parent="0" />
        <mxCell id="khwBa49cd4JpL_EvrgTC-1" value="Person" style="swimlane;fontStyle=1;align=center;verticalAlign=top;childLayout=stackLayout;horizontal=1;startSize=26;horizontalStack=0;resizeParent=1;resizeParentMax=0;resizeLast=0;collapsible=1;marginBottom=0;whiteSpace=wrap;html=1;" vertex="1" parent="1">
          <mxGeometry x="130" y="90" width="160" height="134" as="geometry" />
        </mxCell>
        <mxCell id="khwBa49cd4JpL_EvrgTC-2" value="&amp;nbsp;- personID: string&lt;div&gt;&amp;nbsp;- fName: string&lt;/div&gt;&lt;div&gt;&amp;nbsp;- lName: string&lt;/div&gt;&lt;div&gt;&amp;nbsp;- contactInfo: string&lt;/div&gt;" style="text;strokeColor=none;fillColor=none;align=left;verticalAlign=top;spacingLeft=4;spacingRight=4;overflow=hidden;rotatable=0;points=[[0,0.5],[1,0.5]];portConstraint=eastwest;whiteSpace=wrap;html=1;" vertex="1" parent="khwBa49cd4JpL_EvrgTC-1">
          <mxGeometry y="26" width="160" height="74" as="geometry" />
        </mxCell>
        <mxCell id="khwBa49cd4JpL_EvrgTC-3" value="" style="line;strokeWidth=1;fillColor=none;align=left;verticalAlign=middle;spacingTop=-1;spacingLeft=3;spacingRight=3;rotatable=0;labelPosition=right;points=[];portConstraint=eastwest;strokeColor=inherit;" vertex="1" parent="khwBa49cd4JpL_EvrgTC-1">
          <mxGeometry y="100" width="160" height="8" as="geometry" />
        </mxCell>
        <mxCell id="khwBa49cd4JpL_EvrgTC-4" value="&amp;nbsp;- getDetails(): string" style="text;strokeColor=none;fillColor=none;align=left;verticalAlign=top;spacingLeft=4;spacingRight=4;overflow=hidden;rotatable=0;points=[[0,0.5],[1,0.5]];portConstraint=eastwest;whiteSpace=wrap;html=1;" vertex="1" parent="khwBa49cd4JpL_EvrgTC-1">
          <mxGeometry y="108" width="160" height="26" as="geometry" />
        </mxCell>
        <mxCell id="khwBa49cd4JpL_EvrgTC-5" value="Employee" style="swimlane;fontStyle=1;align=center;verticalAlign=top;childLayout=stackLayout;horizontal=1;startSize=26;horizontalStack=0;resizeParent=1;resizeParentMax=0;resizeLast=0;collapsible=1;marginBottom=0;whiteSpace=wrap;html=1;" vertex="1" parent="1">
          <mxGeometry y="290" width="160" height="80" as="geometry" />
        </mxCell>
        <mxCell id="khwBa49cd4JpL_EvrgTC-6" value="- employeeID: string&lt;div&gt;- role : string&lt;/div&gt;" style="text;strokeColor=none;fillColor=none;align=left;verticalAlign=top;spacingLeft=4;spacingRight=4;overflow=hidden;rotatable=0;points=[[0,0.5],[1,0.5]];portConstraint=eastwest;whiteSpace=wrap;html=1;" vertex="1" parent="khwBa49cd4JpL_EvrgTC-5">
          <mxGeometry y="26" width="160" height="54" as="geometry" />
        </mxCell>
        <mxCell id="khwBa49cd4JpL_EvrgTC-7" value="" style="line;strokeWidth=1;fillColor=none;align=left;verticalAlign=middle;spacingTop=-1;spacingLeft=3;spacingRight=3;rotatable=0;labelPosition=right;points=[];portConstraint=eastwest;strokeColor=inherit;" vertex="1" parent="khwBa49cd4JpL_EvrgTC-5">
          <mxGeometry y="80" width="160" as="geometry" />
        </mxCell>
        <mxCell id="khwBa49cd4JpL_EvrgTC-9" value="Buyer" style="swimlane;fontStyle=1;align=center;verticalAlign=top;childLayout=stackLayout;horizontal=1;startSize=26;horizontalStack=0;resizeParent=1;resizeParentMax=0;resizeLast=0;collapsible=1;marginBottom=0;whiteSpace=wrap;html=1;" vertex="1" parent="1">
          <mxGeometry x="345" y="280" width="160" height="140" as="geometry" />
        </mxCell>
        <mxCell id="khwBa49cd4JpL_EvrgTC-10" value="- buyerID: string" style="text;strokeColor=none;fillColor=none;align=left;verticalAlign=top;spacingLeft=4;spacingRight=4;overflow=hidden;rotatable=0;points=[[0,0.5],[1,0.5]];portConstraint=eastwest;whiteSpace=wrap;html=1;" vertex="1" parent="khwBa49cd4JpL_EvrgTC-9">
          <mxGeometry y="26" width="160" height="24" as="geometry" />
        </mxCell>
        <mxCell id="khwBa49cd4JpL_EvrgTC-11" value="" style="line;strokeWidth=1;fillColor=none;align=left;verticalAlign=middle;spacingTop=-1;spacingLeft=3;spacingRight=3;rotatable=0;labelPosition=right;points=[];portConstraint=eastwest;strokeColor=inherit;" vertex="1" parent="khwBa49cd4JpL_EvrgTC-9">
          <mxGeometry y="50" width="160" height="8" as="geometry" />
        </mxCell>
        <mxCell id="khwBa49cd4JpL_EvrgTC-12" value="- purchaseProduct(product: Product): void&lt;div&gt;- generatePurchaseOrder(): PurchaseOrder&lt;/div&gt;" style="text;strokeColor=none;fillColor=none;align=left;verticalAlign=top;spacingLeft=4;spacingRight=4;overflow=hidden;rotatable=0;points=[[0,0.5],[1,0.5]];portConstraint=eastwest;whiteSpace=wrap;html=1;" vertex="1" parent="khwBa49cd4JpL_EvrgTC-9">
          <mxGeometry y="58" width="160" height="82" as="geometry" />
        </mxCell>
        <mxCell id="khwBa49cd4JpL_EvrgTC-13" value="" style="endArrow=block;html=1;endFill=0;edgeStyle=elbowEdgeStyle;elbow=vertical;rounded=0;exitX=0.685;exitY=-0.001;exitDx=0;exitDy=0;exitPerimeter=0;" edge="1" parent="1" source="khwBa49cd4JpL_EvrgTC-5">
          <mxGeometry width="100" height="75" relative="1" as="geometry">
            <mxPoint x="110" y="285" as="sourcePoint" />
            <mxPoint x="210" y="230" as="targetPoint" />
            <Array as="points">
              <mxPoint x="160" y="250" />
            </Array>
          </mxGeometry>
        </mxCell>
        <mxCell id="khwBa49cd4JpL_EvrgTC-15" value="" style="endArrow=none;html=1;rounded=0;exitX=0.75;exitY=0;exitDx=0;exitDy=0;" edge="1" parent="1" source="khwBa49cd4JpL_EvrgTC-9">
          <mxGeometry width="50" height="50" relative="1" as="geometry">
            <mxPoint x="465" y="270" as="sourcePoint" />
            <mxPoint x="210" y="250" as="targetPoint" />
            <Array as="points">
              <mxPoint x="465" y="250" />
            </Array>
          </mxGeometry>
        </mxCell>
        <mxCell id="khwBa49cd4JpL_EvrgTC-16" value="Product" style="swimlane;fontStyle=1;align=center;verticalAlign=top;childLayout=stackLayout;horizontal=1;startSize=26;horizontalStack=0;resizeParent=1;resizeParentMax=0;resizeLast=0;collapsible=1;marginBottom=0;whiteSpace=wrap;html=1;" vertex="1" parent="1">
          <mxGeometry x="590" y="60" width="160" height="140" as="geometry" />
        </mxCell>
        <mxCell id="khwBa49cd4JpL_EvrgTC-17" value="- buyerID: string" style="text;strokeColor=none;fillColor=none;align=left;verticalAlign=top;spacingLeft=4;spacingRight=4;overflow=hidden;rotatable=0;points=[[0,0.5],[1,0.5]];portConstraint=eastwest;whiteSpace=wrap;html=1;" vertex="1" parent="khwBa49cd4JpL_EvrgTC-16">
          <mxGeometry y="26" width="160" height="24" as="geometry" />
        </mxCell>
        <mxCell id="khwBa49cd4JpL_EvrgTC-18" value="" style="line;strokeWidth=1;fillColor=none;align=left;verticalAlign=middle;spacingTop=-1;spacingLeft=3;spacingRight=3;rotatable=0;labelPosition=right;points=[];portConstraint=eastwest;strokeColor=inherit;" vertex="1" parent="khwBa49cd4JpL_EvrgTC-16">
          <mxGeometry y="50" width="160" height="8" as="geometry" />
        </mxCell>
        <mxCell id="khwBa49cd4JpL_EvrgTC-19" value="- purchaseProduct(product: Product): void&lt;div&gt;- generatePurchaseOrder(): PurchaseOrder&lt;/div&gt;" style="text;strokeColor=none;fillColor=none;align=left;verticalAlign=top;spacingLeft=4;spacingRight=4;overflow=hidden;rotatable=0;points=[[0,0.5],[1,0.5]];portConstraint=eastwest;whiteSpace=wrap;html=1;" vertex="1" parent="khwBa49cd4JpL_EvrgTC-16">
          <mxGeometry y="58" width="160" height="82" as="geometry" />
        </mxCell>
        <mxCell id="khwBa49cd4JpL_EvrgTC-20" value="Inventory" style="swimlane;fontStyle=1;align=center;verticalAlign=top;childLayout=stackLayout;horizontal=1;startSize=26;horizontalStack=0;resizeParent=1;resizeParentMax=0;resizeLast=0;collapsible=1;marginBottom=0;whiteSpace=wrap;html=1;" vertex="1" parent="1">
          <mxGeometry x="910" y="60" width="160" height="140" as="geometry" />
        </mxCell>
        <mxCell id="khwBa49cd4JpL_EvrgTC-21" value="- buyerID: string" style="text;strokeColor=none;fillColor=none;align=left;verticalAlign=top;spacingLeft=4;spacingRight=4;overflow=hidden;rotatable=0;points=[[0,0.5],[1,0.5]];portConstraint=eastwest;whiteSpace=wrap;html=1;" vertex="1" parent="khwBa49cd4JpL_EvrgTC-20">
          <mxGeometry y="26" width="160" height="24" as="geometry" />
        </mxCell>
        <mxCell id="khwBa49cd4JpL_EvrgTC-22" value="" style="line;strokeWidth=1;fillColor=none;align=left;verticalAlign=middle;spacingTop=-1;spacingLeft=3;spacingRight=3;rotatable=0;labelPosition=right;points=[];portConstraint=eastwest;strokeColor=inherit;" vertex="1" parent="khwBa49cd4JpL_EvrgTC-20">
          <mxGeometry y="50" width="160" height="8" as="geometry" />
        </mxCell>
        <mxCell id="khwBa49cd4JpL_EvrgTC-23" value="- purchaseProduct(product: Product): void&lt;div&gt;- generatePurchaseOrder(): PurchaseOrder&lt;/div&gt;" style="text;strokeColor=none;fillColor=none;align=left;verticalAlign=top;spacingLeft=4;spacingRight=4;overflow=hidden;rotatable=0;points=[[0,0.5],[1,0.5]];portConstraint=eastwest;whiteSpace=wrap;html=1;" vertex="1" parent="khwBa49cd4JpL_EvrgTC-20">
          <mxGeometry y="58" width="160" height="82" as="geometry" />
        </mxCell>
        <mxCell id="khwBa49cd4JpL_EvrgTC-24" value="VendingMachine" style="swimlane;fontStyle=1;align=center;verticalAlign=top;childLayout=stackLayout;horizontal=1;startSize=26;horizontalStack=0;resizeParent=1;resizeParentMax=0;resizeLast=0;collapsible=1;marginBottom=0;whiteSpace=wrap;html=1;" vertex="1" parent="1">
          <mxGeometry x="910" y="240" width="160" height="140" as="geometry" />
        </mxCell>
        <mxCell id="khwBa49cd4JpL_EvrgTC-25" value="- buyerID: string" style="text;strokeColor=none;fillColor=none;align=left;verticalAlign=top;spacingLeft=4;spacingRight=4;overflow=hidden;rotatable=0;points=[[0,0.5],[1,0.5]];portConstraint=eastwest;whiteSpace=wrap;html=1;" vertex="1" parent="khwBa49cd4JpL_EvrgTC-24">
          <mxGeometry y="26" width="160" height="24" as="geometry" />
        </mxCell>
        <mxCell id="khwBa49cd4JpL_EvrgTC-26" value="" style="line;strokeWidth=1;fillColor=none;align=left;verticalAlign=middle;spacingTop=-1;spacingLeft=3;spacingRight=3;rotatable=0;labelPosition=right;points=[];portConstraint=eastwest;strokeColor=inherit;" vertex="1" parent="khwBa49cd4JpL_EvrgTC-24">
          <mxGeometry y="50" width="160" height="8" as="geometry" />
        </mxCell>
        <mxCell id="khwBa49cd4JpL_EvrgTC-27" value="- purchaseProduct(product: Product): void&lt;div&gt;- generatePurchaseOrder(): PurchaseOrder&lt;/div&gt;" style="text;strokeColor=none;fillColor=none;align=left;verticalAlign=top;spacingLeft=4;spacingRight=4;overflow=hidden;rotatable=0;points=[[0,0.5],[1,0.5]];portConstraint=eastwest;whiteSpace=wrap;html=1;" vertex="1" parent="khwBa49cd4JpL_EvrgTC-24">
          <mxGeometry y="58" width="160" height="82" as="geometry" />
        </mxCell>
        <mxCell id="khwBa49cd4JpL_EvrgTC-28" value="" style="endArrow=none;html=1;rounded=0;exitX=0.5;exitY=1;exitDx=0;exitDy=0;" edge="1" parent="1" source="khwBa49cd4JpL_EvrgTC-16">
          <mxGeometry width="50" height="50" relative="1" as="geometry">
            <mxPoint x="860" y="350" as="sourcePoint" />
            <mxPoint x="910" y="300" as="targetPoint" />
            <Array as="points">
              <mxPoint x="670" y="300" />
            </Array>
          </mxGeometry>
        </mxCell>
        <mxCell id="khwBa49cd4JpL_EvrgTC-29" value="contains" style="edgeLabel;html=1;align=center;verticalAlign=middle;resizable=0;points=[];" vertex="1" connectable="0" parent="khwBa49cd4JpL_EvrgTC-28">
          <mxGeometry x="0.1018" y="1" relative="1" as="geometry">
            <mxPoint as="offset" />
          </mxGeometry>
        </mxCell>
        <mxCell id="khwBa49cd4JpL_EvrgTC-30" value="1.*" style="edgeLabel;html=1;align=center;verticalAlign=middle;resizable=0;points=[];" vertex="1" connectable="0" parent="khwBa49cd4JpL_EvrgTC-28">
          <mxGeometry x="-0.8373" y="-8" relative="1" as="geometry">
            <mxPoint x="-12" y="-7" as="offset" />
          </mxGeometry>
        </mxCell>
        <mxCell id="khwBa49cd4JpL_EvrgTC-31" value="0..*" style="edgeLabel;html=1;align=center;verticalAlign=middle;resizable=0;points=[];" vertex="1" connectable="0" parent="khwBa49cd4JpL_EvrgTC-28">
          <mxGeometry x="0.815" y="1" relative="1" as="geometry">
            <mxPoint x="11" y="21" as="offset" />
          </mxGeometry>
        </mxCell>
        <mxCell id="khwBa49cd4JpL_EvrgTC-32" value="" style="endArrow=none;html=1;rounded=0;exitX=1.028;exitY=0.274;exitDx=0;exitDy=0;exitPerimeter=0;entryX=-0.039;entryY=0.274;entryDx=0;entryDy=0;entryPerimeter=0;" edge="1" parent="1" source="khwBa49cd4JpL_EvrgTC-19" target="khwBa49cd4JpL_EvrgTC-23">
          <mxGeometry width="50" height="50" relative="1" as="geometry">
            <mxPoint x="680" y="210" as="sourcePoint" />
            <mxPoint x="920" y="310" as="targetPoint" />
            <Array as="points" />
          </mxGeometry>
        </mxCell>
        <mxCell id="khwBa49cd4JpL_EvrgTC-33" value="Manages" style="edgeLabel;html=1;align=center;verticalAlign=middle;resizable=0;points=[];" vertex="1" connectable="0" parent="khwBa49cd4JpL_EvrgTC-32">
          <mxGeometry x="0.1018" y="1" relative="1" as="geometry">
            <mxPoint y="-19" as="offset" />
          </mxGeometry>
        </mxCell>
      </root>
    </mxGraphModel>
  </diagram>
</mxfile>
